# xmcd
#
# Track frame offsets: 
#        150
#        13192
#        31664
#        45976
#        59240
#        75637
#        93818
#        106492
#        122797
#        144454
#        159332
#        173677
#        191931
#        209336
#        228685
#        243099
#        258798
#        277724
#        295121
#        310275
#        326637
#
# Disc length: 4666 seconds
#
# Revision: 2
# Processed by: cddbd v1.5.2PL0 Copyright (c) Steve Scherf et al.
# Submitted via: ExactAudioCopy v1.0b3
#
DISCID=1e123815
DTITLE=Automatikk - Jenseits von Eden
DYEAR=2008
DGENRE=Hip-Hop
TTITLE0=Stehe mein Mann
TTITLE1=Königskettenfetischist
TTITLE2=Blut ist dicker als Wasser
TTITLE3=Nur die Starken überleben
TTITLE4=Kugeln aus Blei (feat. Reason)
TTITLE5=Jenseits von Eden
TTITLE6=Pump die Hantelbank
TTITLE7=Zwei Brüder
TTITLE8=Ghettopräsident (Part 2) (feat. Alpa Gun, Bass Sultan Hengzt &
TTITLE8=Sido)
TTITLE9=Wenn wir einsteigen
TTITLE10=Liebe einen G (feat. Akina)
TTITLE11=Ich bin immer da für dich
TTITLE12=Strassengesetz
TTITLE13=Tony Montana Rap
TTITLE14=Vaterstaat
TTITLE15=Das ist der Asphalt
TTITLE16=Konsequenzen
TTITLE17=Mein Schatz (feat. Josof)
TTITLE18=Atem der Strasse
TTITLE19=Blut Schweiss and Tränen
TTITLE20=Ende der Zeit
EXTD=
EXTT0=
EXTT1=
EXTT2=
EXTT3=
EXTT4=
EXTT5=
EXTT6=
EXTT7=
EXTT8=
EXTT9=
EXTT10=
EXTT11=
EXTT12=
EXTT13=
EXTT14=
EXTT15=
EXTT16=
EXTT17=
EXTT18=
EXTT19=
EXTT20=
PLAYORDER=
